<svg width="508" height="326" viewBox="0 0 508 326" fill="none" xmlns="http://www.w3.org/2000/svg">
<g clip-path="url(#clip0)">
<path d="M49.6193 278.944C49.002 278.79 48.3846 278.636 47.7673 278.482" stroke="#A9C6EA" stroke-miterlimit="10"/>
<path d="M45.1436 277.712C33.4911 274.093 22.3017 267.469 14.5077 258.228C-12.8871 225.728 19.215 184.14 51.1627 171.048C66.7508 164.656 80.7954 157.031 85.3484 139.318C89.747 122.375 77.7087 104.662 74.6219 88.489C68.3713 55.9121 97.6953 30.7285 128.717 30.7285C157.269 30.7285 170.079 41.5875 198.4 60.5329C219.776 74.8575 259.981 83.252 290.848 80.1715C327.58 76.5518 341.471 60.5329 370.795 47.4405C390.935 38.4299 419.102 36.5046 437.931 49.828C458.072 64.0755 450.432 92.0316 452.747 112.825C453.288 118.062 454.677 123.222 457.3 127.766C473.814 156.877 507.614 158.341 507.614 201.391C507.614 232.428 457.918 244.75 431.14 248.832" stroke="#A9C6EA" stroke-miterlimit="10" stroke-dasharray="5 5"/>
<path d="M429.828 248.986C429.211 249.063 428.517 249.14 427.899 249.217" stroke="#A9C6EA" stroke-miterlimit="10"/>
<path d="M41.9025 116.599H52.9376" stroke="#A9C6EA" stroke-miterlimit="10"/>
<path d="M52.9376 122.76H63.8956" stroke="#A9C6EA" stroke-miterlimit="10"/>
<path d="M377.817 68.6194H388.775" stroke="#A9C6EA" stroke-miterlimit="10"/>
<path d="M370.794 74.7805H381.83" stroke="#A9C6EA" stroke-miterlimit="10"/>
<path d="M387.54 71.8539H402.511" stroke="#A9C6EA" stroke-miterlimit="10"/>
<path d="M483.538 198.85H491.486" stroke="#A9C6EA" stroke-miterlimit="10"/>
<path d="M476.361 192.766H487.396" stroke="#A9C6EA" stroke-miterlimit="10"/>
<path d="M119.611 38.969H130.646" stroke="#A9C6EA" stroke-miterlimit="10"/>
<path d="M101.708 171.356H119.843" stroke="#A9C6EA" stroke-miterlimit="10"/>
<path d="M123.624 171.356H133.038" stroke="#A9C6EA" stroke-miterlimit="10"/>
<path d="M335.066 148.329C335.066 150.254 333.445 151.871 331.516 151.871C329.587 151.871 327.966 150.254 327.966 148.329C327.966 146.403 329.587 144.786 331.516 144.786C333.445 144.786 335.066 146.326 335.066 148.329Z" stroke="#A9C6EA" stroke-miterlimit="10"/>
<path d="M474.663 123.761C474.663 125.687 473.043 127.304 471.113 127.304C469.184 127.304 467.564 125.687 467.564 123.761C467.564 121.836 469.184 120.219 471.113 120.219C473.12 120.219 474.663 121.836 474.663 123.761Z" stroke="#A9C6EA" stroke-miterlimit="10"/>
<path d="M342.782 47.3636C342.782 49.2889 341.162 50.9062 339.233 50.9062C337.303 50.9062 335.683 49.2889 335.683 47.3636C335.683 45.4382 337.303 43.8209 339.233 43.8209C341.162 43.8209 342.782 45.3612 342.782 47.3636Z" stroke="#A9C6EA" stroke-miterlimit="10"/>
<path d="M412.234 52.6774C412.234 53.6786 411.462 54.4488 410.459 54.4488C409.456 54.4488 408.684 53.6786 408.684 52.6774C408.684 51.6763 409.456 50.9061 410.459 50.9061C411.462 50.9061 412.234 51.6763 412.234 52.6774Z" stroke="#A9C6EA" stroke-miterlimit="10"/>
<path d="M304.198 185.218C304.198 186.22 303.427 186.99 302.423 186.99C301.42 186.99 300.648 186.22 300.648 185.218C300.648 184.217 301.42 183.447 302.423 183.447C303.349 183.447 304.198 184.217 304.198 185.218Z" stroke="#A9C6EA" stroke-miterlimit="10"/>
<path d="M98.7756 58.6845C98.7756 59.6857 98.004 60.4558 97.0008 60.4558C95.9976 60.4558 95.2259 59.6857 95.2259 58.6845C95.2259 57.6833 95.9976 56.9132 97.0008 56.9132C98.004 56.9132 98.7756 57.6833 98.7756 58.6845Z" stroke="#A9C6EA" stroke-miterlimit="10"/>
<path d="M18.9063 168.892C18.9063 169.893 18.1346 170.663 17.1314 170.663C16.1283 170.663 15.3566 169.893 15.3566 168.892C15.3566 167.89 16.1283 167.12 17.1314 167.12C18.1346 167.12 18.9063 167.89 18.9063 168.892Z" stroke="#A9C6EA" stroke-miterlimit="10"/>
<path d="M105.952 132.772C105.952 133.773 105.181 134.543 104.177 134.543C103.174 134.543 102.403 133.773 102.403 132.772C102.403 131.771 103.174 131.001 104.177 131.001C105.181 131.001 105.952 131.771 105.952 132.772Z" stroke="#A9C6EA" stroke-miterlimit="10"/>
<path d="M51.4714 78.015V82.1738" stroke="#A9C6EA" stroke-miterlimit="10"/>
<path d="M53.5549 80.0944H49.3878" stroke="#A9C6EA" stroke-miterlimit="10"/>
<path d="M296.173 22.334V26.4927" stroke="#A9C6EA" stroke-miterlimit="10"/>
<path d="M298.256 24.4133H294.012" stroke="#A9C6EA" stroke-miterlimit="10"/>
<path d="M427.745 86.8717V91.0305" stroke="#A9C6EA" stroke-miterlimit="10"/>
<path d="M429.828 88.951H425.661" stroke="#A9C6EA" stroke-miterlimit="10"/>
<path d="M496.193 142.707V146.866" stroke="#A9C6EA" stroke-miterlimit="10"/>
<path d="M498.277 144.786H494.033" stroke="#A9C6EA" stroke-miterlimit="10"/>
<path d="M476.361 215.947V220.106" stroke="#A9C6EA" stroke-miterlimit="10"/>
<path d="M478.444 218.026H474.277" stroke="#A9C6EA" stroke-miterlimit="10"/>
<path d="M356.673 169.662C357.985 167.351 359.065 164.81 359.914 162.114C360.685 159.419 361.148 156.723 361.303 154.028L353.895 153.027C353.972 150.562 353.663 148.021 353.046 145.71L360.068 143.092C358.602 137.778 355.901 132.849 352.197 128.767L346.178 133.311C344.48 131.54 342.551 129.999 340.39 128.69L343.477 121.913C341.162 120.604 338.615 119.526 335.914 118.678C333.213 117.908 330.513 117.446 327.812 117.292L326.808 124.685C324.339 124.608 321.87 124.916 319.477 125.533L316.854 118.524C311.529 119.988 306.59 122.683 302.5 126.38L307.053 132.387C305.278 134.081 303.735 136.006 302.423 138.163L295.632 135.082C294.321 137.393 293.24 139.934 292.391 142.63C291.62 145.325 291.157 148.021 291.002 150.716L298.41 151.717C298.333 154.182 298.642 156.723 299.259 159.034L292.237 161.652C293.703 166.966 296.404 171.895 300.108 175.977L306.127 171.433C307.825 173.204 309.754 174.745 311.915 176.054L308.828 182.831C311.143 184.14 313.69 185.218 316.391 186.066C319.092 186.836 321.793 187.298 324.493 187.452L325.497 180.058C327.966 180.135 330.513 179.827 332.828 179.211L335.451 186.22C340.776 184.756 345.715 182.061 349.805 178.364L345.252 172.357C347.027 170.663 348.57 168.737 349.882 166.581L356.673 169.662ZM321.098 169.354C311.683 166.581 306.282 156.8 308.983 147.328C311.761 137.932 321.561 132.541 331.053 135.236C340.544 137.932 345.869 147.79 343.168 157.262C340.467 166.735 330.513 172.049 321.098 169.354ZM322.41 164.887C315.465 162.884 311.452 155.645 313.458 148.637C315.465 141.706 322.719 137.701 329.741 139.703C336.686 141.706 340.699 148.945 338.692 155.953C336.686 162.961 329.355 166.889 322.41 164.887Z" fill="#E4ECF9"/>
<path d="M364.158 97.4226C364.004 96.1134 363.772 94.7271 363.309 93.4179C362.846 92.1087 362.306 90.8765 361.612 89.7212L358.293 91.4155C357.599 90.4144 356.827 89.4902 355.901 88.643L358.062 85.6395C355.978 83.8682 353.509 82.636 350.808 82.0198L349.65 85.5625C348.493 85.3314 347.258 85.2544 346.024 85.3315L345.406 81.7118C344.094 81.8658 342.705 82.0969 341.393 82.5589C340.082 83.021 338.847 83.5601 337.689 84.2533L339.387 87.5648C338.384 88.258 337.458 89.0281 336.609 89.9523L333.599 87.7959C331.825 89.8753 330.59 92.3397 329.972 95.0352L333.522 96.1904C333.291 97.3456 333.214 98.5778 333.291 99.8101L329.664 100.426C329.818 101.735 330.05 103.122 330.513 104.431C330.976 105.74 331.516 106.972 332.21 108.128L335.529 106.433C336.223 107.434 336.995 108.359 337.921 109.206L335.76 112.209C337.844 113.981 340.313 115.213 343.014 115.829L344.171 112.286C345.329 112.517 346.564 112.594 347.798 112.517L348.416 116.137C349.728 115.983 351.117 115.752 352.429 115.29C353.74 114.828 354.975 114.289 356.133 113.596L354.435 110.284C355.438 109.591 356.364 108.821 357.213 107.897L360.223 110.053C361.997 107.974 363.232 105.509 363.849 102.814L360.3 101.658C360.531 100.503 360.608 99.271 360.531 98.0387L364.158 97.4226ZM349.187 105.894C345.329 107.203 341.162 105.124 339.85 101.196C338.538 97.3456 340.622 93.1869 344.557 91.8776C348.416 90.5684 352.583 92.6478 353.895 96.5755C355.129 100.426 353.046 104.585 349.187 105.894Z" fill="#E4ECF9"/>
<path d="M181.886 72.4701C181.732 70.4677 181.269 68.3884 180.651 66.386C179.957 64.3836 179.108 62.4583 178.028 60.764L172.935 63.3054C171.931 61.6882 170.697 60.3019 169.308 59.0697L172.549 54.4488C169.308 51.7534 165.526 49.905 161.436 48.9038L159.662 54.2948C157.887 53.9098 155.957 53.7557 154.105 53.9098L153.102 48.3647C151.096 48.5188 149.012 48.9809 147.006 49.597C145 50.2901 143.07 51.1373 141.373 52.2154L143.919 57.2984C142.299 58.2995 140.91 59.5318 139.675 60.918L135.045 57.6834C132.344 60.918 130.492 64.6917 129.489 68.7734L134.89 70.5448C134.505 72.3161 134.35 74.2414 134.505 76.0898L128.871 77.0139C129.026 79.0163 129.489 81.0957 130.106 83.098C130.801 85.1004 131.649 87.0257 132.73 88.7201L137.823 86.1786C138.826 87.7959 140.061 89.1821 141.45 90.4144L138.209 95.0352C141.45 97.7307 145.231 99.579 149.321 100.58L151.096 95.1892C152.871 95.5743 154.8 95.7283 156.652 95.5743L157.655 101.119C159.662 100.965 161.745 100.503 163.751 99.8871C165.758 99.1939 167.687 98.3468 169.385 97.2686L166.838 92.1857C168.459 91.1845 169.848 89.9523 171.082 88.566L175.713 91.8006C178.413 88.566 180.266 84.7923 181.269 80.7106L175.867 78.9393C176.253 77.168 176.407 75.2426 176.253 73.3943L181.886 72.4701ZM158.967 85.4855C153.025 87.4878 146.62 84.2532 144.691 78.3232C142.762 72.3931 145.926 66.0009 151.868 64.0756C157.81 62.0732 164.214 65.3078 166.144 71.2379C168.073 77.0909 164.909 83.4831 158.967 85.4855Z" fill="#E4ECF9"/>
<path d="M131.186 114.52C131.958 113.21 132.575 111.747 133.038 110.207C133.501 108.667 133.733 107.126 133.81 105.586L129.566 104.97C129.566 103.584 129.412 102.12 129.103 100.811L133.116 99.348C132.267 96.3444 130.723 93.5719 128.64 91.2615L125.244 93.803C124.318 92.8018 123.161 91.8776 122.003 91.1845L123.778 87.3338C122.466 86.5637 121 85.9476 119.457 85.4855C117.913 85.0234 116.37 84.7923 114.827 84.7153L114.209 88.9511C112.82 88.9511 111.354 89.1051 110.042 89.4132L108.576 85.4085C105.567 86.2556 102.788 87.7959 100.473 89.8753L103.02 93.2639C102.017 94.188 101.091 95.3433 100.396 96.4985L96.5378 94.7271C95.7661 96.0364 95.1488 97.4997 94.6857 99.0399C94.2227 100.58 93.9912 102.12 93.9141 103.661L98.1583 104.277C98.1583 105.663 98.3127 107.126 98.6213 108.436L94.6086 109.899C95.4574 112.902 97.0008 115.675 99.0843 117.985L102.48 115.444C103.406 116.445 104.563 117.369 105.721 118.062L103.946 121.913C105.258 122.683 106.724 123.299 108.267 123.761C109.811 124.223 111.354 124.455 112.898 124.532L113.515 120.296C114.904 120.296 116.37 120.142 117.682 119.834L119.148 123.838C122.158 122.991 124.936 121.451 127.251 119.372L124.704 115.983C125.707 115.059 126.634 113.904 127.328 112.748L131.186 114.52ZM111.045 114.366C105.721 112.825 102.634 107.203 104.177 101.889C105.721 96.5755 111.354 93.4949 116.679 95.0352C122.003 96.5755 125.09 102.198 123.547 107.511C121.926 112.825 116.37 115.906 111.045 114.366ZM111.74 111.824C107.804 110.669 105.567 106.587 106.647 102.66C107.804 98.7319 111.894 96.4985 115.83 97.5767C119.766 98.7319 122.003 102.814 120.923 106.741C119.843 110.669 115.676 112.979 111.74 111.824Z" fill="#E4ECF9"/>
<path d="M228.264 325.692C230.579 320.84 242.849 299.661 255.814 292.653C257.434 291.729 259.209 290.959 261.061 290.728C262.913 290.574 264.919 291.113 266.077 292.653C267.08 294.039 267.234 295.887 266.926 297.505C264.611 310.751 249.486 315.834 242.078 325.615" fill="#D7E3F4"/>
<path d="M228.264 325.615C228.264 325.615 240.457 301.664 252.264 287.416C257.897 280.639 261.755 268.162 255.813 264.389C247.248 258.998 238.836 271.012 235.055 277.019C229.268 286.107 224.946 296.118 221.628 306.361C221.165 307.825 216.766 325.615 216.689 325.615H219.622H228.264Z" fill="#D7E3F4"/>
<path d="M251.492 271.32C240.303 285.491 230.965 306.361 224.792 325.692" stroke="white" stroke-miterlimit="10"/>
<path d="M202.799 325.615C202.799 325.615 201.41 288.802 185.05 271.705C180.651 267.084 173.398 262.309 167.456 261C159.739 259.306 159.97 268.316 161.359 274.169C163.134 281.717 169.385 286.492 173.861 292.114C182.118 302.511 187.056 309.365 192.998 325.538" fill="#B2CDED"/>
<path d="M207.66 325.615C212.059 317.528 210.516 283.103 208.278 272.321C206.734 264.851 203.57 257.534 199.249 251.527C195.313 246.136 183.661 234.122 176.793 238.974C172.78 241.747 178.877 251.912 180.42 254.916C185.59 264.774 189.68 275.325 192.844 286.107C196.548 298.66 199.326 311.829 200.329 324.999C200.329 325.153 200.329 325.307 200.329 325.538" fill="#D7E3F4"/>
<path d="M208.509 325.615C207.043 306.361 207.969 276.711 216.689 259.999C226.567 241.054 239.454 232.274 241.306 239.667C246.708 261.077 224.946 318.684 218.85 325.538" fill="#B2CDED"/>
<path d="M165.295 267.238C182.889 279.483 195.005 302.665 197.243 325.692" stroke="white" stroke-miterlimit="10"/>
<path d="M183.275 245.212C191.918 252.914 196.317 264.928 198.94 276.634C202.567 292.653 204.342 309.134 204.959 325.692" stroke="white" stroke-miterlimit="10"/>
<path d="M235.75 247.831C225.1 272.244 216.149 298.583 214.683 325.615" stroke="white" stroke-miterlimit="10"/>
<path d="M260.829 295.425C260.829 295.425 245.319 305.745 234.438 325.615" stroke="white" stroke-miterlimit="10"/>
<path d="M419.874 325.615C422.189 295.194 419.642 265.313 431.217 236.433C434.536 228.269 442.021 215.331 452.439 214.869C468.49 214.176 458.689 246.368 455.757 258.459C453.905 266.237 451.127 273.938 448.194 281.332C443.024 294.501 435.307 312.831 429.52 325.615" fill="#B2CDED"/>
<path d="M411.462 325.615C406.369 312.676 401.43 299.738 396.492 286.8C392.093 275.325 386.923 264.081 383.296 252.375C380.595 243.441 373.495 222.878 383.836 216.563C402.202 205.319 416.864 248.832 418.87 264.312C421.417 284.72 420.877 305.206 421.186 325.692" fill="#D7E3F4"/>
<path d="M396.877 325.615C396.877 325.615 386.151 311.906 381.289 305.514C370.486 291.19 357.136 275.633 359.142 259.46C359.605 255.763 360.994 251.604 364.698 249.448C367.013 248.139 369.791 247.754 372.415 247.985C381.212 248.832 389.083 261.539 393.019 268.085C400.736 280.87 412.774 325.615 412.774 325.615" fill="#B2CDED"/>
<path d="M388.698 225.497C401.816 251.99 414.626 300.97 414.935 325.538" stroke="white" stroke-miterlimit="10"/>
<path d="M368.325 255.917C379.823 278.02 403.282 325.615 403.282 325.615" stroke="white" stroke-miterlimit="10"/>
<path d="M451.744 221.877C442.33 242.825 429.443 288.263 424.272 325.692" stroke="white" stroke-miterlimit="10"/>
<path d="M429.906 325.615C429.906 325.615 435.307 301.74 439.011 288.186C443.024 273.476 456.297 250.911 470.187 244.519C473.351 243.056 477.21 242.055 480.297 243.749C482.226 244.75 483.46 246.675 484.155 248.755C486.547 255.609 474.972 277.404 470.959 283.488C463.165 295.425 451.976 314.448 443.178 325.692" fill="#D7E3F4"/>
<path d="M477.75 249.294C461.313 263.542 439.32 308.903 433.224 325.615" stroke="white" stroke-miterlimit="10"/>
<path d="M73.5416 310.751C71.458 299.584 67.9854 277.558 65.3617 264.004C64.127 257.458 60.4229 249.448 58.1079 243.21C53.8636 231.889 43.6002 212.173 30.8674 213.175C15.125 214.484 27.8578 242.825 31.8706 253.453C34.4172 260.307 37.9669 267.084 41.5167 273.476C47.7673 284.952 57.1047 300.893 64.127 311.906" fill="#B2CDED"/>
<path d="M82.6474 298.737C78.789 288.648 79.8694 275.864 79.8694 265.236C79.8694 246.059 86.583 219.182 99.0843 206.628C104.255 201.468 112.743 195.692 118.299 203.625C123.547 211.095 117.45 231.504 115.598 240.283C111.894 257.457 93.914 289.187 88.7438 305.822" fill="#B2CDED"/>
<path d="M109.039 212.327C100.165 235.278 88.2035 277.25 85.194 301.664" stroke="white" stroke-miterlimit="10"/>
<path d="M32.1793 219.567C43.4459 237.588 59.8827 276.326 68.6028 309.981" stroke="white" stroke-miterlimit="10"/>
<path d="M73.9274 286.415C78.6347 278.713 84.268 253.607 85.5799 244.596C87.3547 231.966 87.5862 218.642 84.4223 206.243C82.3388 197.849 72.6156 172.819 60.5001 184.063C54.7897 189.377 55.7157 218.334 56.4102 226.036C57.7221 241.208 65.5932 268.393 68.2941 283.334" fill="#D7E3F4"/>
<path d="M67.2909 190.609C75.6251 212.25 73.5415 266.006 70.9178 284.797" stroke="white" stroke-miterlimit="10"/>
<path d="M0 325.615H484.464" stroke="#648ACC" stroke-miterlimit="10"/>
<path d="M195.545 107.974C197.937 105.663 203.648 97.7306 204.342 97.9617C204.959 98.1927 203.03 100.965 203.57 101.042C204.111 101.119 207.506 97.0375 208.046 97.3456C208.895 97.8077 205.191 101.889 205.191 101.889C205.191 101.889 209.435 97.6536 209.975 98.3468C210.361 98.8088 207.352 102.12 206.271 103.584C207.583 102.197 209.975 100.118 210.361 100.657C210.747 101.119 208.741 103.43 207.274 105.355C208.278 104.277 210.284 102.429 210.67 102.814C211.056 103.199 206.117 110.746 201.564 116.214" fill="#F886BC"/>
<path d="M165.372 136.7C185.513 119.526 199.017 103.815 199.017 103.815L206.58 108.821C206.58 108.821 193.847 128.459 177.256 145.402" fill="#F886BC"/>
<path d="M159.353 142.476C163.52 137.239 170.388 132.233 170.388 132.233L182.581 142.091L171.854 154.644" fill="#BF2C4C"/>
<path d="M180.42 231.812L173.938 316.681L181.577 321.533C181.577 321.533 160.588 322.611 159.893 321.918C159.199 321.225 160.742 316.527 160.742 316.527L157.269 231.581L180.42 231.812Z" fill="#F886BC"/>
<path d="M163.211 321.918L160.047 318.838L160.51 317.22L165.295 321.918H167.61L175.79 317.914L184.664 323.459C185.667 324.075 185.204 325.692 184.047 325.692L172.163 325.615L168.382 322.997H167.301V325.615H159.584V321.918H163.211Z" fill="#28364C"/>
<path d="M163.443 231.35L144.383 316.681L152.022 321.533C152.022 321.533 131.033 322.611 130.338 321.918C129.644 321.225 131.187 316.527 131.187 316.527L136.743 231.273H163.443V231.35Z" fill="#F886BC"/>
<path d="M133.656 321.918L130.492 318.838L130.955 317.22L135.739 321.918H138.054L146.234 317.913L155.109 323.458C156.112 324.075 155.649 325.692 154.491 325.692L142.607 325.615L138.826 322.996H137.746V325.615H130.029V321.918H133.656Z" fill="#28364C"/>
<path d="M143.379 187.298C132.884 205.704 132.884 239.975 132.884 239.975H181.5C181.5 239.975 180.806 209.863 175.404 192.92L143.379 187.298Z" fill="#101D54"/>
<path d="M159.662 188.992L160.819 239.975" stroke="#273B7A" stroke-width="0.75" stroke-miterlimit="10"/>
<path d="M170.388 191.149C170.388 191.149 167.919 197.387 159.662 199.543" stroke="#273B7A" stroke-width="0.75" stroke-miterlimit="10"/>
<path d="M213.371 169.431C216.535 170.355 226.258 171.51 226.412 172.203C226.567 172.896 223.171 172.511 223.403 173.05C223.634 173.589 228.882 174.514 228.804 175.207C228.727 176.131 223.48 174.899 223.48 174.899C223.48 174.899 229.19 176.516 228.959 177.363C228.727 177.979 224.329 176.901 222.554 176.67C224.406 177.132 227.338 178.21 227.107 178.749C226.875 179.365 223.866 178.672 221.551 178.287C223.017 178.672 225.563 179.442 225.409 180.059C225.255 180.598 217.769 179.519 210.747 178.287" fill="#F886BC"/>
<path d="M156.189 137.547C156.189 137.547 156.961 139.626 161.359 139.626C164.369 139.626 165.526 138.009 165.526 138.009C165.526 138.009 166.684 139.01 178.645 154.721C181.192 158.033 180.651 165.195 176.407 171.433C175.404 177.671 175.018 184.91 175.404 192.92H140.678C140.678 192.92 140.061 168.044 142.453 154.413C143.919 146.403 149.938 140.011 156.189 137.547Z" fill="#E03B5A"/>
<path d="M179.108 148.329C202.259 166.427 218.31 170.355 218.31 170.355L216.458 179.211C216.458 179.211 188.677 175.669 170.388 160.343" fill="#F886BC"/>
<path fill-rule="evenodd" clip-rule="evenodd" d="M165.681 138.625C171.623 139.626 180.729 148.329 180.729 148.329L171.082 162.499C171.082 162.499 166.993 159.65 161.436 154.875" fill="#E03B5A"/>
<path d="M171.082 161.96C163.829 157.571 160.588 154.336 160.588 154.336" stroke="#A31D4A" stroke-width="0.75" stroke-miterlimit="10"/>
<path fill-rule="evenodd" clip-rule="evenodd" d="M168.304 122.221C170.697 126.226 171.7 130.154 168.304 132.233C164.909 134.312 159.507 135.314 156.035 129.615C153.642 125.61 154.414 120.758 157.809 118.679C161.205 116.599 165.835 118.216 168.304 122.221Z" fill="#F886BC"/>
<path d="M165.449 123.222C165.526 123.607 165.912 124.069 166.298 124.069C166.375 124.069 166.53 123.992 166.53 123.915C166.761 123.222 165.218 122.375 165.449 123.222Z" fill="#0B0B3A"/>
<path d="M163.906 122.837C164.523 121.99 165.372 121.605 166.221 121.528" stroke="#0B0B3A" stroke-width="0.5" stroke-miterlimit="10" stroke-linecap="round"/>
<path d="M169.23 126.765L166.993 127.843C166.993 127.843 167.764 129.769 168.999 129.383C170.002 129.152 169.23 126.765 169.23 126.765Z" fill="white"/>
<path fill-rule="evenodd" clip-rule="evenodd" d="M165.681 138.625C165.681 138.625 163.751 139.703 161.359 139.626C157.887 139.549 156.189 138.163 156.189 138.163L158.504 128.305L166.993 128.921L165.681 138.625Z" fill="#F886BC"/>
<path fill-rule="evenodd" clip-rule="evenodd" d="M167.456 122.375C167.456 122.375 170.388 124.3 170.465 124.84C170.542 125.379 169.308 126.072 169.308 126.072" fill="#F886BC"/>
<path d="M159.353 115.906C159.044 116.06 157.964 115.752 157.578 115.752C157.038 115.752 156.498 115.829 155.957 115.906C152.716 116.522 150.324 119.141 148.781 121.913C147.778 123.684 146.929 125.687 145.154 126.842C141.141 129.383 135.894 128.459 131.418 129.923C126.865 131.463 123.392 136.084 124.627 141.013C125.013 142.63 125.862 144.093 126.402 145.633C127.482 149.022 126.942 152.95 129.026 155.876C129.566 156.646 130.26 157.339 131.032 157.879C134.427 160.42 139.058 161.344 143.148 160.189C147.237 159.034 150.787 155.953 152.331 151.949C154.105 147.482 153.565 142.091 156.189 138.009C157.424 136.084 159.276 134.697 160.51 132.772C161.591 131.001 162.208 127.766 162.362 125.687C162.362 125.225 161.514 121.143 161.822 121.143C163.906 121.143 166.607 119.834 167.841 118.601C166.144 115.29 162.131 114.52 159.353 115.906Z" fill="#0B0B3A"/>
<path d="M161.591 126.303C161.591 126.303 160.356 125.456 159.584 126.688C158.581 128.228 161.051 130.154 162.208 130.231C163.366 130.308 163.366 128.998 163.366 128.998" fill="#F886BC"/>
<path d="M421.803 101.889H346.255V202.624H421.803V101.889Z" fill="#D9E4F4" stroke="#648ACC" stroke-miterlimit="10"/>
<path d="M433.069 101.889H357.521V202.624H433.069V101.889Z" fill="white" stroke="#648ACC" stroke-miterlimit="10"/>
<path opacity="0.45" d="M420.568 122.837H370.64C369.097 122.837 367.862 121.605 367.862 120.065V112.44C367.862 110.9 369.097 109.668 370.64 109.668H420.568C422.111 109.668 423.346 110.9 423.346 112.44V120.065C423.346 121.605 422.111 122.837 420.568 122.837Z" fill="#D7E3F4"/>
<path opacity="0.45" d="M397.032 194.229H370.64C369.097 194.229 367.862 192.997 367.862 191.457V159.958C367.862 158.418 369.097 157.185 370.64 157.185H397.032C398.575 157.185 399.81 158.418 399.81 159.958V191.457C399.81 192.997 398.575 194.229 397.032 194.229Z" fill="#D7E3F4"/>
<path d="M372.029 135.93C372.029 135.93 371.72 135.93 370.331 135.93C368.942 135.93 367.862 134.466 367.862 132.695C367.862 130.924 368.942 129.46 370.331 129.46C370.563 129.46 372.029 129.46 372.029 129.46V135.93Z" fill="#B2CDED"/>
<path d="M374.499 132.772C374.499 134.543 373.418 136.007 372.029 136.007C370.64 136.007 369.56 134.543 369.56 132.772C369.56 131.001 370.64 129.537 372.029 129.537C373.418 129.537 374.499 131.001 374.499 132.772Z" fill="#D7E3F4"/>
<path d="M388.312 135.93C388.312 135.93 388.003 135.93 386.614 135.93C385.225 135.93 384.145 134.466 384.145 132.695C384.145 130.924 385.225 129.46 386.614 129.46C386.846 129.46 388.312 129.46 388.312 129.46V135.93Z" fill="#B2CDED"/>
<path d="M390.781 132.772C390.781 134.543 389.701 136.007 388.312 136.007C386.923 136.007 385.842 134.543 385.842 132.772C385.842 131.001 386.923 129.537 388.312 129.537C389.624 129.537 390.781 131.001 390.781 132.772Z" fill="#D7E3F4"/>
<path d="M404.594 135.93C404.594 135.93 404.285 135.93 402.896 135.93C401.507 135.93 400.427 134.466 400.427 132.695C400.427 130.924 401.507 129.46 402.896 129.46C403.128 129.46 404.594 129.46 404.594 129.46V135.93Z" fill="#B2CDED"/>
<path d="M407.064 132.772C407.064 134.543 405.983 136.007 404.594 136.007C403.205 136.007 402.125 134.543 402.125 132.772C402.125 131.001 403.205 129.537 404.594 129.537C405.983 129.537 407.064 131.001 407.064 132.772Z" fill="#D7E3F4"/>
<path d="M420.877 135.93C420.877 135.93 420.568 135.93 419.179 135.93C417.79 135.93 416.71 134.466 416.71 132.695C416.71 130.924 417.79 129.46 419.179 129.46C419.411 129.46 420.877 129.46 420.877 129.46V135.93Z" fill="#B2CDED"/>
<path d="M423.346 132.772C423.346 134.543 422.266 136.007 420.877 136.007C419.488 136.007 418.407 134.543 418.407 132.772C418.407 131.001 419.488 129.537 420.877 129.537C422.266 129.537 423.346 131.001 423.346 132.772Z" fill="#D7E3F4"/>
<path d="M372.029 151.563C372.029 151.563 371.72 151.563 370.331 151.563C368.942 151.563 367.862 150.1 367.862 148.329C367.862 146.558 368.942 145.094 370.331 145.094C370.563 145.094 372.029 145.094 372.029 145.094V151.563Z" fill="#B2CDED"/>
<path d="M374.499 148.329C374.499 150.1 373.418 151.563 372.029 151.563C370.64 151.563 369.56 150.1 369.56 148.329C369.56 146.558 370.64 145.094 372.029 145.094C373.418 145.094 374.499 146.558 374.499 148.329Z" fill="#D7E3F4"/>
<path d="M388.312 151.563C388.312 151.563 388.003 151.563 386.614 151.563C385.225 151.563 384.145 150.1 384.145 148.329C384.145 146.558 385.225 145.094 386.614 145.094C386.846 145.094 388.312 145.094 388.312 145.094V151.563Z" fill="#B2CDED"/>
<path d="M390.781 148.329C390.781 150.1 389.701 151.563 388.312 151.563C386.923 151.563 385.842 150.1 385.842 148.329C385.842 146.558 386.923 145.094 388.312 145.094C389.624 145.094 390.781 146.558 390.781 148.329Z" fill="#D7E3F4"/>
<path d="M404.594 151.563C404.594 151.563 404.285 151.563 402.896 151.563C401.507 151.563 400.427 150.1 400.427 148.329C400.427 146.558 401.507 145.094 402.896 145.094C403.128 145.094 404.594 145.094 404.594 145.094V151.563Z" fill="#B2CDED"/>
<path d="M407.064 148.329C407.064 150.1 405.983 151.563 404.594 151.563C403.205 151.563 402.125 150.1 402.125 148.329C402.125 146.558 403.205 145.094 404.594 145.094C405.983 145.094 407.064 146.558 407.064 148.329Z" fill="#D7E3F4"/>
<path d="M420.877 151.563C420.877 151.563 420.568 151.563 419.179 151.563C417.79 151.563 416.71 150.1 416.71 148.329C416.71 146.558 417.79 145.094 419.179 145.094C419.411 145.094 420.877 145.094 420.877 145.094V151.563Z" fill="#B2CDED"/>
<path d="M423.346 148.329C423.346 150.1 422.266 151.563 420.877 151.563C419.488 151.563 418.407 150.1 418.407 148.329C418.407 146.558 419.488 145.094 420.877 145.094C422.266 145.094 423.346 146.558 423.346 148.329Z" fill="#D7E3F4"/>
<path d="M59.3433 325.615H187.52V227.576H91.5997L59.3433 265.236V325.615Z" fill="white" stroke="#648ACC" stroke-miterlimit="10"/>
<path d="M151.173 325.615H198.4V227.576H182.735L151.173 265.236V325.615Z" fill="#D9E4F4" stroke="#648ACC" stroke-miterlimit="10"/>
<path d="M59.3094 325.655H151.14V265.276H59.3094L59.3094 325.655Z" fill="#D9E4F4" stroke="#648ACC" stroke-miterlimit="10"/>
<path d="M159.353 238.589C160.202 239.359 162.054 238.82 163.366 237.357C164.677 235.894 165.063 234.045 164.214 233.275C163.597 232.736 162.362 231.581 162.362 231.581L157.501 236.895C157.578 236.895 158.504 237.819 159.353 238.589Z" fill="#B2CDED"/>
<path d="M157.655 237.049C158.504 237.819 160.356 237.28 161.668 235.817C162.98 234.353 163.366 232.505 162.517 231.735C161.668 230.965 159.816 231.504 158.504 232.967C157.192 234.353 156.806 236.202 157.655 237.049Z" fill="#D7E3F4"/>
<path d="M145.077 238.589C145.926 239.359 147.778 238.82 149.09 237.357C150.401 235.894 150.787 234.045 149.938 233.275C149.321 232.736 148.086 231.581 148.086 231.581L143.225 236.895C143.225 236.895 144.228 237.819 145.077 238.589Z" fill="#B2CDED"/>
<path d="M143.379 237.049C144.228 237.819 146.08 237.28 147.392 235.817C148.704 234.353 149.089 232.505 148.241 231.735C147.392 230.965 145.54 231.504 144.228 232.967C142.839 234.353 142.453 236.202 143.379 237.049Z" fill="#D7E3F4"/>
<path d="M115.676 238.589C116.524 239.359 118.376 238.82 119.688 237.357C121 235.894 121.386 234.045 120.537 233.275C119.92 232.736 118.685 231.581 118.685 231.581L113.824 236.895C113.824 236.895 114.75 237.819 115.676 238.589Z" fill="#B2CDED"/>
<path d="M113.978 237.049C114.827 237.819 116.679 237.28 117.991 235.817C119.302 234.353 119.688 232.505 118.839 231.735C117.991 230.965 116.139 231.504 114.827 232.967C113.438 234.353 113.052 236.202 113.978 237.049Z" fill="#D7E3F4"/>
<path d="M100.473 238.589C101.322 239.359 103.174 238.82 104.486 237.357C105.798 235.894 106.184 234.045 105.335 233.275C104.718 232.736 103.483 231.581 103.483 231.581L98.6213 236.895C98.6984 236.895 99.6245 237.819 100.473 238.589Z" fill="#B2CDED"/>
<path d="M98.7756 237.049C99.6245 237.819 101.477 237.28 102.788 235.817C104.1 234.353 104.486 232.505 103.637 231.735C102.788 230.965 100.936 231.504 99.6245 232.967C98.3126 234.353 97.9268 236.202 98.7756 237.049Z" fill="#D7E3F4"/>
<path opacity="0.45" d="M150.093 258.382L155.186 251.759H77.5543L71.7667 258.382H150.093Z" fill="#D7E3F4"/>
<path d="M235.827 212.558V294.424C235.827 298.352 232.586 301.586 228.65 301.586H182.966C179.031 301.586 175.79 298.352 175.79 294.424V292.114" stroke="#648ACC" stroke-miterlimit="10"/>
<path d="M247.171 216.332V309.904C247.171 313.909 243.852 317.22 239.84 317.22H167.301C163.366 317.22 160.125 313.986 160.125 310.058V292.114" stroke="#648ACC" stroke-miterlimit="10"/>
<path d="M267.697 214.792V269.087C267.697 273.014 270.939 276.249 274.874 276.249H331.593C335.529 276.249 338.77 273.014 338.77 269.087V176.054C338.77 172.126 342.011 168.891 345.946 168.891H369.328" stroke="#648ACC" stroke-miterlimit="10"/>
<path d="M258.592 216.332V292.422C258.592 296.35 261.833 299.584 265.768 299.584H369.868C373.804 299.584 377.045 296.35 377.045 292.422V186.605" stroke="#648ACC" stroke-miterlimit="10"/>
<path d="M184.355 97.2685C184.355 59.9938 214.606 29.8043 251.955 29.8043C289.305 29.8043 319.555 59.9938 319.555 97.2685C319.555 112.132 314.77 125.841 306.59 137.008C296.944 151.486 271.865 167.89 271.865 177.748V188.992C271.865 191.226 270.012 193.074 267.775 193.074H256.971H246.939H236.058C233.82 193.074 231.968 191.226 231.968 188.992V177.748C231.968 167.967 206.889 151.563 197.243 137.008C189.14 125.841 184.355 112.132 184.355 97.2685Z" fill="#FDD305"/>
<path d="M259.672 191.919C259.595 190.224 258.36 163.115 260.521 139.395C257.82 139.703 255.042 139.857 251.955 139.857C248.946 139.857 246.09 139.703 243.389 139.395C245.55 163.115 244.315 190.224 244.238 191.919L243.081 191.842C243.081 191.457 244.315 163.424 242.155 139.241C222.091 136.469 213.139 125.148 211.519 114.443C210.593 108.205 212.754 101.966 216.612 99.656C219.004 98.2697 221.859 97.9617 224.869 98.8089C229.653 100.195 234.206 104.277 236.984 109.822C240.226 116.214 242.155 126.765 243.312 138.24C246.013 138.548 248.868 138.779 251.955 138.779C255.042 138.779 257.974 138.625 260.598 138.24C261.678 126.765 263.608 116.214 266.926 109.822C269.781 104.277 274.257 100.195 279.041 98.8089C282.051 97.9617 284.906 98.1927 287.298 99.656C291.157 101.966 293.317 108.205 292.391 114.443C290.771 125.148 281.819 136.469 261.756 139.241C259.518 163.424 260.752 191.457 260.829 191.842L259.672 191.919ZM282.437 99.502C281.433 99.502 280.43 99.656 279.427 99.9641C274.951 101.273 270.707 105.124 268.006 110.361C264.842 116.445 262.99 126.765 261.91 138.086C281.125 135.313 289.69 124.532 291.234 114.289C292.083 108.59 290.153 102.737 286.681 100.657C285.446 99.887 283.98 99.502 282.437 99.502ZM221.474 99.502C219.93 99.502 218.464 99.887 217.152 100.657C213.68 102.737 211.75 108.59 212.599 114.289C214.143 124.532 222.708 135.313 241.923 138.086C240.843 126.842 238.914 116.522 235.827 110.361C233.126 105.124 228.882 101.273 224.406 99.9641C223.48 99.579 222.477 99.502 221.474 99.502Z" fill="white"/>
<path d="M308.288 101.196C306.127 101.196 304.43 99.4249 304.43 97.3455C304.43 73.3172 288.147 52.4464 264.842 46.5933C262.759 46.0542 261.524 43.9749 262.064 41.8955C262.604 39.8161 264.688 38.5839 266.771 39.123C293.549 45.9002 312.146 69.8516 312.146 97.4226C312.224 99.4249 310.449 101.196 308.288 101.196Z" fill="#FFEE99"/>
<path d="M250.643 40.9714C250.643 43.1278 252.418 44.8221 254.502 44.8221C256.662 44.8221 258.36 43.0508 258.36 40.9714C258.36 38.815 256.585 37.1207 254.502 37.1207C252.418 37.0437 250.643 38.815 250.643 40.9714Z" fill="#FFEE99"/>
<g opacity="0.55">
<g opacity="0.55">
<g opacity="0.55">
<path opacity="0.55" d="M319.477 101.273C315.773 128.921 293.395 157.571 251.955 157.571C210.593 157.571 189.063 127.612 184.433 101.273C185.204 114.597 189.834 126.842 197.243 137.008C206.889 151.486 231.968 167.89 231.968 177.748V188.992C231.968 191.226 233.82 193.074 236.058 193.074H246.939H256.971H267.852C270.09 193.074 271.942 191.226 271.942 188.992V177.748C271.942 167.967 297.021 151.563 306.668 137.008C313.999 126.919 318.629 114.597 319.477 101.273Z" fill="#FFC043"/>
</g>
</g>
</g>
<path d="M273.485 182.523H230.425V203.009C230.425 206.32 231.351 209.632 233.203 212.481C236.599 217.795 242.463 221.03 248.791 221.03H255.119C261.447 221.03 267.312 217.795 270.707 212.481C272.482 209.632 273.485 206.397 273.485 203.009V182.523Z" fill="#28364C"/>
<path d="M230.425 196.309C230.579 196.309 230.657 196.309 230.811 196.309L273.871 191.842C275.337 191.688 276.34 190.378 276.186 188.915C275.954 187.452 274.643 186.374 273.176 186.528L230.116 190.995C228.65 191.149 227.647 192.458 227.801 193.921C227.956 195.307 229.113 196.309 230.425 196.309Z" fill="#475577"/>
<path d="M230.425 205.704C230.579 205.704 230.657 205.704 230.811 205.704L273.871 201.237C275.337 201.083 276.34 199.774 276.186 198.311C275.954 196.848 274.643 195.769 273.176 195.923L230.116 200.39C228.65 200.544 227.647 201.853 227.801 203.317C227.956 204.626 229.113 205.627 230.425 205.704Z" fill="#475577"/>
<path d="M232.123 215.023C232.277 215.023 232.354 215.023 232.509 215.023L273.331 210.787C274.797 210.633 275.8 209.324 275.646 207.861C275.414 206.397 274.102 205.319 272.636 205.473L231.814 209.709C230.348 209.863 229.345 211.172 229.499 212.635C229.653 213.945 230.811 214.946 232.123 215.023Z" fill="#475577"/>
<path d="M251.955 1.15515V22.334" stroke="#FFC043" stroke-width="3" stroke-miterlimit="10" stroke-linecap="round" stroke-linejoin="round"/>
<path d="M290.308 9.62671L281.665 29.0342" stroke="#FFC043" stroke-width="3" stroke-miterlimit="10" stroke-linecap="round" stroke-linejoin="round"/>
<path d="M322.564 33.0389L306.899 47.3635" stroke="#FFC043" stroke-width="3" stroke-miterlimit="10" stroke-linecap="round" stroke-linejoin="round"/>
<path d="M213.602 9.62671L222.245 29.0342" stroke="#FFC043" stroke-width="3" stroke-miterlimit="10" stroke-linecap="round" stroke-linejoin="round"/>
<path d="M181.346 33.0389L197.011 47.3635" stroke="#FFC043" stroke-width="3" stroke-miterlimit="10" stroke-linecap="round" stroke-linejoin="round"/>
<path d="M160.125 293.654C160.934 293.654 161.591 292.999 161.591 292.191C161.591 291.383 160.934 290.728 160.125 290.728C159.315 290.728 158.658 291.383 158.658 292.191C158.658 292.999 159.315 293.654 160.125 293.654Z" fill="#648ACC"/>
<path d="M175.867 293.654C176.677 293.654 177.333 292.999 177.333 292.191C177.333 291.383 176.677 290.728 175.867 290.728C175.057 290.728 174.401 291.383 174.401 292.191C174.401 292.999 175.057 293.654 175.867 293.654Z" fill="#648ACC"/>
<path d="M377.045 188.068C377.855 188.068 378.511 187.413 378.511 186.605C378.511 185.797 377.855 185.141 377.045 185.141C376.235 185.141 375.579 185.797 375.579 186.605C375.579 187.413 376.235 188.068 377.045 188.068Z" fill="#648ACC"/>
<path d="M385.302 188.068C386.112 188.068 386.768 187.413 386.768 186.605C386.768 185.797 386.112 185.141 385.302 185.141C384.492 185.141 383.836 185.797 383.836 186.605C383.836 187.413 384.492 188.068 385.302 188.068Z" fill="#648ACC"/>
<path d="M395.025 186.605C395.025 187.375 394.408 188.068 393.559 188.068C392.788 188.068 392.093 187.452 392.093 186.605C392.093 185.835 392.71 185.141 393.559 185.141C394.331 185.218 395.025 185.835 395.025 186.605Z" fill="#648ACC"/>
<path d="M369.328 170.355C370.138 170.355 370.794 169.7 370.794 168.892C370.794 168.083 370.138 167.428 369.328 167.428C368.518 167.428 367.862 168.083 367.862 168.892C367.862 169.7 368.518 170.355 369.328 170.355Z" fill="#648ACC"/>
<path d="M335.872 282.169C351.246 275.754 358.499 258.116 352.072 242.773C345.644 227.429 327.971 220.191 312.597 226.605C297.222 233.02 289.969 250.658 296.397 266.001C302.824 281.345 320.498 288.583 335.872 282.169Z" fill="#F46072"/>
<path d="M329.085 275.609C340.846 272.942 348.213 261.265 345.54 249.527C342.867 237.79 331.167 230.438 319.406 233.105C307.645 235.772 300.278 247.45 302.95 259.187C305.623 270.924 317.324 278.277 329.085 275.609Z" fill="white"/>
<path d="M309.214 254.377C309.214 262.617 315.928 269.318 324.185 269.318C332.442 269.318 339.155 262.617 339.155 254.377C339.155 246.136 332.442 239.436 324.185 239.436C315.928 239.436 309.214 246.136 309.214 254.377Z" fill="#F46072"/>
<path d="M316.391 254.377C316.391 258.69 319.941 262.232 324.262 262.232C328.583 262.232 332.133 258.69 332.133 254.377C332.133 250.064 328.583 246.522 324.262 246.522C319.941 246.599 316.391 250.064 316.391 254.377Z" fill="white"/>
<path d="M323.027 255.609H327.966L323.027 250.68V255.609Z" fill="#0C3656"/>
<path d="M355.052 223.648H360.685V222.262H356.441V218.026H355.052V223.648Z" fill="#0C3656"/>
<path d="M357.599 221.107H363.309V219.644H359.065V215.485H357.599V221.107Z" fill="#0C3656"/>
<path d="M358.063 219.679L323.905 253.768L324.887 254.749L359.045 220.659L358.063 219.679Z" fill="#0C3656"/>
<path d="M91.9848 200.621L88.2807 207.707C88.2807 207.707 85.7342 207.707 82.2616 206.012C78.789 204.318 77.7858 201.931 77.7858 201.931L84.1136 193.613" fill="#F886BC"/>
<path d="M99.9332 187.298C103.406 189.3 97.6953 202.239 94.5314 203.086C91.3675 203.933 85.194 197.772 83.342 192.612C81.4899 187.452 87.4319 184.602 90.9816 183.601C94.4542 182.523 99.9332 187.298 99.9332 187.298Z" fill="#F886BC"/>
<path d="M97.3095 193.536C97.2323 193.613 97.2323 193.767 97.1551 193.844C97.078 193.921 97.078 194.075 97.0008 194.152C97.0008 194.229 96.9236 194.229 97.0008 194.306C97.0008 194.383 97.078 194.383 97.078 194.46C97.1551 194.537 97.3095 194.46 97.3866 194.383C97.4638 194.306 97.4638 194.152 97.541 194.075C97.6181 193.921 97.6181 193.844 97.6953 193.69C97.6953 193.613 97.6953 193.613 97.6953 193.536L97.6181 193.459C97.4638 193.459 97.3866 193.459 97.3095 193.536Z" fill="#00276F"/>
<path d="M99.2386 192.304C99.2386 192.304 98.4669 191.149 96.4606 191.534" stroke="#00276F" stroke-width="0.75" stroke-miterlimit="10" stroke-linecap="round" stroke-linejoin="round"/>
<path d="M94.2999 198.542L96.5378 200.082C96.5378 200.082 95.6889 201.776 94.9172 201.083C94.0684 200.544 94.2999 198.542 94.2999 198.542Z" fill="white"/>
<path d="M103.02 190.147C101.477 189.608 99.7017 188.684 98.5441 188.068C96.9236 188.376 95.3031 189.916 95.2259 191.611C95.2259 191.996 95.1487 192.535 94.7629 192.535C94.5314 192.535 94.2999 192.304 94.2227 192.073C94.1455 191.842 94.1455 191.534 94.0684 191.303C93.8369 190.84 93.2195 190.609 92.6793 190.763C92.1392 190.917 91.8305 191.38 91.599 191.919C91.0588 193.151 90.5958 194.691 91.8305 195.769C91.9848 195.923 92.2163 196.077 92.3707 196.308C92.6022 196.771 92.2935 197.387 91.9848 197.772C91.0588 199.158 89.5926 200.698 86.8145 200.698C84.8082 200.698 81.5671 198.08 81.3356 196.771C81.3356 196.617 79.4064 188.684 82.9561 183.601C84.8082 180.906 88.1264 178.903 91.599 179.211C93.7597 179.365 95.6117 180.675 96.6149 181.445C102.48 182.446 103.714 188.376 103.02 190.147Z" fill="#212237"/>
<path d="M99.7017 194.845C99.7017 194.845 100.242 198.696 99.4702 199.158C98.6985 199.543 97.0779 198.465 97.0779 198.465" fill="#F886BC"/>
<path d="M101.245 299.584L98.3897 317.759L98.2354 323.227L119.765 323.15C120.306 323.15 120.691 322.688 120.691 322.226C120.691 321.841 120.46 321.456 120.074 321.379L110.814 317.143L114.518 298.198" fill="#F886BC"/>
<path d="M121.772 322.919C121.54 322.226 121.154 321.456 120.769 321.302L110.891 317.066C105.489 319.3 98.4669 317.605 98.4669 317.605L97.2322 324.999C97.2322 325.23 97.4637 325.461 97.6952 325.461L121.695 325.307C122.08 325.307 121.772 322.919 121.772 322.919Z" fill="#4868EF"/>
<path d="M112.975 317.451C112.434 318.145 111.971 318.915 111.586 319.762" stroke="#273B7A" stroke-width="0.75" stroke-miterlimit="10"/>
<path d="M114.209 318.221C113.669 318.992 113.438 319.454 113.052 320.224" stroke="#273B7A" stroke-width="0.75" stroke-miterlimit="10"/>
<path d="M115.29 318.761C114.904 319.3 114.518 319.993 114.209 320.609" stroke="#273B7A" stroke-width="0.75" stroke-miterlimit="10"/>
<path d="M97.2322 323.766L121.849 323.689" stroke="#273B7A" stroke-width="0.75" stroke-miterlimit="10"/>
<path d="M97.9268 320.147C97.9268 320.147 103.714 320.301 104.177 323.766" stroke="#273B7A" stroke-width="0.75" stroke-miterlimit="10"/>
<path d="M118.685 320.378C118.685 320.378 117.065 322.611 116.756 323.69" stroke="#273B7A" stroke-width="0.75" stroke-miterlimit="10"/>
<path d="M34.4171 304.359L16.4368 302.203L10.9579 302.049L11.0351 323.535C11.0351 324.075 11.4981 324.46 11.9611 324.46C12.3469 324.46 12.7328 324.229 12.8099 323.844L17.0542 314.602L35.6518 316.681" fill="#F886BC"/>
<path d="M11.2666 325.461C11.9611 325.23 12.7328 324.845 12.8871 324.46L17.1314 314.602C14.8935 309.211 16.5912 302.203 16.5912 302.203L9.18304 300.97C8.95154 300.97 8.72003 301.201 8.72003 301.432L8.87437 325.384C8.95154 325.769 11.2666 325.461 11.2666 325.461Z" fill="#4868EF"/>
<path d="M16.7455 316.681C16.051 316.142 15.2793 315.68 14.4305 315.295" stroke="#273B7A" stroke-width="0.75" stroke-miterlimit="10"/>
<path d="M15.9738 317.913C15.2022 317.374 14.7392 317.143 13.9675 316.758" stroke="#273B7A" stroke-width="0.75" stroke-miterlimit="10"/>
<path d="M15.4337 318.992C14.8935 318.606 14.199 318.221 13.5817 317.913" stroke="#273B7A" stroke-width="0.75" stroke-miterlimit="10"/>
<path d="M10.4177 300.97L10.4949 325.538" stroke="#273B7A" stroke-width="0.75" stroke-miterlimit="10"/>
<path d="M14.0446 301.663C14.0446 301.663 13.8903 307.439 10.4177 307.902" stroke="#273B7A" stroke-width="0.75" stroke-miterlimit="10"/>
<path d="M13.8132 322.38C13.8132 322.38 11.5753 320.763 10.4949 320.455" stroke="#273B7A" stroke-width="0.75" stroke-miterlimit="10"/>
<path d="M45.0664 254.377C41.2079 264.697 47.5357 279.638 47.5357 279.638L50.854 303.743L19.3693 302.357L19.6779 323.304C19.6779 323.304 53.4777 325.692 61.6576 325.692C69.8374 325.692 73.0013 323.844 75.3936 319.069C78.9433 311.906 73.8502 272.552 73.8502 271.936L68.2169 246.676" fill="#22252D"/>
<path d="M23.1505 302.511L23.382 323.535" stroke="#474B51" stroke-width="0.75" stroke-miterlimit="10"/>
<path d="M56.0243 259.922C56.0243 259.922 52.4745 278.174 70.6091 282.102C78.7118 283.873 99.393 284.412 99.393 284.412L95.8432 312.599H116.447C116.447 312.599 120.691 291.344 122.003 277.173C122.852 267.7 118.762 263.465 111.123 262.54C104.64 261.77 85.1168 260.461 85.1168 260.461L81.8757 256.379" fill="#22252D"/>
<path d="M74.6991 282.718C74.6991 282.718 59.4197 282.795 55.7928 265.698" stroke="#474B51" stroke-width="0.75" stroke-miterlimit="10"/>
<path d="M63.8183 264.081C63.8183 264.081 67.9854 264.851 73.31 264.543" stroke="#474B51" stroke-width="0.75" stroke-miterlimit="10"/>
<path d="M43.8317 261.693C43.8317 261.693 47.9216 262.848 50.5453 262.848" stroke="#474B51" stroke-width="0.75" stroke-miterlimit="10"/>
<path d="M97.2322 308.903H117.219" stroke="#474B51" stroke-width="0.75" stroke-miterlimit="10"/>
<path d="M139.984 231.119H138.363V248.986H139.984V231.119Z" fill="#648ACC"/>
<path d="M139.212 232.274C140.874 232.274 142.221 230.929 142.221 229.27C142.221 227.612 140.874 226.267 139.212 226.267C137.55 226.267 136.202 227.612 136.202 229.27C136.202 230.929 137.55 232.274 139.212 232.274Z" fill="#648ACC"/>
<path d="M124.01 234.43L130.106 234.892C130.106 234.892 134.813 233.352 136.665 233.275C137.823 233.275 138.363 233.814 138.363 233.814C138.363 233.814 138.363 234.43 138.363 235.663C138.363 236.895 139.984 237.434 139.984 236.587V235.586C139.984 235.663 143.379 237.28 141.373 238.743C142.299 238.897 142.762 240.206 141.064 241.131C141.604 241.516 142.299 242.594 140.987 243.364C141.527 244.211 140.369 245.212 139.443 245.366C137.669 245.751 123.778 245.443 123.778 245.443" fill="#F886BC"/>
<path d="M88.5122 207.013C98.5441 220.799 93.1423 225.266 85.9656 260.461C61.9663 260.461 43.6002 256.302 43.6002 256.302C43.6002 256.302 49.3106 237.819 59.8827 217.256C64.8987 207.475 73.31 202.547 78.0945 201.314" fill="#4868EF"/>
<path d="M73.31 222.57C73.31 222.57 88.7437 246.676 96.0747 247.754C107.727 249.448 127.019 248.986 127.019 248.986L128.177 231.966C128.177 231.966 103.406 230.734 102.403 230.117C99.0843 228.269 88.5122 207.013 88.5122 207.013" fill="#4868EF"/>
<path d="M89.7469 243.364C89.7469 243.364 80.7182 235.894 74.6219 224.188" stroke="#273B7A" stroke-width="0.75" stroke-miterlimit="10"/>
<path d="M124.627 231.812L123.161 249.063" stroke="#273B7A" stroke-width="0.75" stroke-miterlimit="10"/>
<path d="M452.362 205.165C451.976 208.477 449.352 217.872 449.892 218.257C450.432 218.642 451.436 215.331 451.822 215.793C452.207 216.178 451.05 221.338 451.744 221.569C452.67 221.877 453.519 216.563 453.519 216.563C453.519 216.563 452.825 222.493 453.674 222.493C454.291 222.57 454.985 218.026 455.526 216.409C455.217 218.257 455.063 221.415 455.68 221.415C456.297 221.415 456.915 218.411 457.455 216.101C457.223 217.564 456.992 220.26 457.609 220.337C458.226 220.414 460.079 213.097 461.622 206.166" fill="#F886BC"/>
<path d="M463.088 159.881C463.088 159.881 468.413 169.354 469.184 175.207C471.114 189.531 459.152 213.868 459.152 213.868C459.152 213.868 450.51 211.48 450.51 210.402C450.51 209.324 456.529 183.832 456.529 183.832L447.886 163.886" fill="#F886BC"/>
<path d="M437.082 128.767L438.24 139.472C438.24 139.472 431.835 144.94 426.124 138.856L426.819 131.848L437.082 128.767Z" fill="#F886BC"/>
<path d="M428.131 118.062C428.131 118.062 421.186 127.612 424.041 131.232C426.124 133.85 431.603 134.158 433.301 133.157C433.687 131.232 438.163 124.763 437.468 123.299C434.69 117.754 428.131 118.062 428.131 118.062Z" fill="#F886BC"/>
<path d="M438.934 119.68C438.703 116.06 435.153 114.982 428.285 115.444C427.359 115.521 425.738 114.905 425.275 115.675C424.735 116.753 424.581 118.909 425.661 119.911C426.356 120.527 426.896 120.681 427.822 120.912C429.057 121.22 430.291 122.375 429.674 123.684C429.52 123.992 429.057 124.608 429.365 124.917C429.52 125.071 429.906 125.225 430.137 125.302C430.6 125.533 430.6 126.303 430.291 126.765C429.983 127.227 430.137 127.766 429.828 128.228C429.134 129.306 429.983 131.386 431.14 132.002C432.143 132.618 435.462 133.619 437.854 132.31C439.938 131.232 441.249 128.305 441.249 122.991C441.249 120.912 439.706 119.603 438.934 119.68Z" fill="#212237"/>
<path d="M428.902 125.148C430.06 123.684 430.909 123.915 431.449 124.762C432.143 125.841 430.754 127.997 430.137 128.382C428.902 129.152 427.822 129.075 427.745 127.997" fill="#F886BC"/>
<path d="M426.124 122.991C425.816 123.222 425.507 123.761 425.661 124.069C425.738 124.146 425.816 124.223 425.893 124.223C426.665 124.146 426.819 122.452 426.124 122.991Z" fill="#28364C"/>
<path d="M426.201 121.682C426.664 121.836 427.359 122.221 427.668 122.837" stroke="#28364C" stroke-width="0.75" stroke-miterlimit="10"/>
<path d="M426.201 128.074L424.581 127.227C424.581 127.227 423.501 129.152 424.272 129.614C425.121 130.076 426.201 128.074 426.201 128.074Z" fill="white"/>
<path d="M402.28 325.626L427.36 325.606L427.359 324.451L402.28 324.47L402.28 325.626Z" fill="#103BB2"/>
<path d="M423.732 315.295L425.893 315.834C425.893 315.834 426.742 318.684 427.05 320.609C427.359 322.611 427.282 324.537 427.282 324.537H402.202C402.202 324.537 402.819 322.38 408.839 318.838C411.231 317.451 412.388 315.911 412.388 315.911L423.732 315.295Z" fill="#22252D"/>
<path d="M426.356 306.284L425.97 315.834C425.97 315.834 424.89 317.143 420.645 317.143C416.401 317.143 412.466 315.988 412.466 315.988L411.617 303.127" fill="#F2B18F"/>
<path d="M438.009 325.626L463.089 325.606L463.088 324.451L438.008 324.47L438.009 325.626Z" fill="#103BB2"/>
<path d="M459.461 315.295L461.622 315.834C461.622 315.834 462.471 318.684 462.779 320.609C463.088 322.611 463.011 324.537 463.011 324.537H437.931C437.931 324.537 438.548 322.38 444.568 318.838C446.96 317.451 448.117 315.911 448.117 315.911L459.461 315.295Z" fill="#22252D"/>
<path d="M460.773 305.899L461.622 315.834C461.622 315.834 460.542 317.143 456.297 317.143C452.053 317.143 448.117 315.988 448.117 315.988L446.188 303.127" fill="#F2B18F"/>
<path d="M456.76 207.398C456.76 207.398 460.696 215.562 457.532 231.119C459.152 265.852 463.32 312.523 463.32 312.523L439.397 312.446C439.397 312.446 434.536 262.232 431.603 237.203C428.362 209.324 426.356 175.207 426.356 175.207" fill="#0070E4"/>
<path d="M443.256 312.446C443.256 312.446 438.394 262.232 435.462 237.203" stroke="#0B2E6B" stroke-width="0.75" stroke-miterlimit="10"/>
<path d="M411.154 208.939C411.154 208.939 408.607 245.597 408.607 263.157C408.607 280.716 407.45 312.523 407.45 312.523H431.603L440.632 229.347C447.963 220.568 447.423 201.468 445.648 193.998L421.726 187.452L411.154 208.939Z" fill="#0070E4"/>
<path d="M435.693 275.017L440.632 229.347C446.806 222.493 446.806 213.791 446.806 213.791" stroke="#0B2E6B" stroke-width="0.75" stroke-miterlimit="10"/>
<path d="M416.17 205.242L410.459 312.522" stroke="#0B2E6B" stroke-width="0.75" stroke-miterlimit="10"/>
<path d="M432.066 214.946L443.796 215.177" stroke="#0B2E6B" stroke-width="0.75" stroke-miterlimit="10"/>
<path d="M452.13 214.561L456.606 214.484" stroke="#0B2E6B" stroke-width="0.75" stroke-miterlimit="10"/>
<path d="M390.781 153.181C387.54 149.484 378.743 135.39 377.74 135.621C376.737 135.853 379.437 140.165 378.589 140.242C377.74 140.242 373.187 133.85 372.261 134.312C371.026 135.005 376.042 141.32 376.042 141.32C376.042 141.32 374.113 138.625 373.187 139.549C372.569 140.165 372.878 141.475 374.267 143.708C373.341 142.553 372.492 142.399 371.798 143.015C371.103 143.708 371.798 144.863 372.569 146.095C371.952 145.325 370.949 144.863 370.717 145.71C370.409 146.788 373.032 152.488 379.36 161.729" fill="#F886BC"/>
<path d="M438.163 138.394C438.163 138.394 451.976 139.01 456.143 154.721C457.995 161.806 459.23 210.402 459.23 210.402L408.684 210.094C408.684 210.094 409.379 166.119 410.459 156.646C412.543 139.241 426.279 138.163 426.279 138.163C426.279 138.163 426.896 139.703 432.298 139.703C437.545 139.626 438.163 138.394 438.163 138.394Z" fill="#D8CAC0"/>
<path d="M438.163 138.394C454.599 138.394 464.709 160.882 464.709 160.882L454.368 166.042" fill="#D8CAC0"/>
<path d="M416.478 170.355C416.478 170.355 407.681 182.908 400.659 183.601C391.167 184.525 374.19 152.873 374.19 152.873L384.839 145.71L399.424 164.04L404.44 156.569" fill="#F886BC"/>
<path d="M426.201 138.086C412.08 138.856 401.739 159.881 401.739 159.881L418.33 171.741L427.745 159.496" fill="#D8CAC0"/>
<path d="M417.713 171.356L425.739 160.959" stroke="#846A6A" stroke-width="0.75" stroke-miterlimit="10"/>
<path d="M457.532 164.502C456.606 157.878 454.368 152.256 454.368 152.256" stroke="#846A6A" stroke-width="0.75" stroke-miterlimit="10"/>
<path d="M425.507 123.761C425.507 123.761 423.192 124.84 423.346 125.302C423.423 125.687 424.118 126.765 424.118 126.765" fill="#F886BC"/>
<path d="M407.45 307.286H432.066" stroke="#0B2E6B" stroke-width="0.75" stroke-miterlimit="10"/>
<path d="M438.857 307.44H462.779" stroke="#0B2E6B" stroke-width="0.75" stroke-miterlimit="10"/>
</g>
<defs>
<clipPath id="clip0">
<rect width="508" height="326" fill="white"/>
</clipPath>
</defs>
</svg>
