<svg width="131" height="20" viewBox="0 0 131 20" fill="none" xmlns="http://www.w3.org/2000/svg">
<g clip-path="url(#clip0)">
<path d="M0 8.20422C0 4.08451 3.43785 0.704224 7.7442 0.704224C10.8564 0.704224 13.4619 2.28873 14.7285 4.6831L11.7611 6.23239C10.9287 4.75352 9.58978 3.83803 7.70801 3.83803C5.24724 3.83803 3.32928 5.84507 3.32928 8.20422C3.32928 10.5634 5.24724 12.5704 7.70801 12.5704C9.58978 12.5704 10.9287 11.6549 11.7611 10.1761L14.7285 11.7254C13.4257 14.1197 10.8202 15.7042 7.7442 15.7042C3.43785 15.7394 0 12.3592 0 8.20422Z" fill="black"/>
<path d="M15.5608 15.4929V0.105591H18.7453V6.26756C19.2519 5.56334 20.3014 4.99996 21.6765 4.99996C24.282 4.99996 25.7657 6.86616 25.7657 9.54221V15.4929H22.5812V10.1056C22.5812 8.69714 22.0384 7.81686 20.8804 7.81686C19.6862 7.81686 18.7453 8.62672 18.7453 10.4929V15.4929H15.5608Z" fill="black"/>
<path d="M26.779 10.3873C26.779 7.49994 28.9141 5.03516 31.6644 5.03516C33.1119 5.03516 34.0528 5.73938 34.5232 6.30276V5.28164H37.7077V15.4929H34.5232V14.4718C34.0528 15.0352 33.0757 15.7394 31.6644 15.7394C28.9141 15.7394 26.779 13.2746 26.779 10.3873ZM34.7765 10.3873C34.7765 8.9084 33.7995 7.85206 32.3881 7.85206C30.9406 7.85206 29.9997 8.9084 29.9997 10.3873C29.9997 11.8661 30.9768 12.9225 32.3881 12.9225C33.8356 12.9225 34.7765 11.8661 34.7765 10.3873Z" fill="black"/>
<path d="M39.4809 19.7887V5.24648H42.6655V6.26761C43.0635 5.70423 44.1492 5 45.5243 5C48.2746 5 50.4097 7.46479 50.4097 10.3521C50.4097 13.2394 48.2746 15.7042 45.5243 15.7042C44.1492 15.7042 43.0635 15.0352 42.6655 14.4366V19.7535H39.4809V19.7887ZM47.2251 10.3873C47.2251 8.90845 46.2481 7.85211 44.8367 7.85211C43.3892 7.85211 42.4483 8.90845 42.4483 10.3873C42.4483 11.8662 43.4254 12.9225 44.8367 12.9225C46.2481 12.9225 47.2251 11.8662 47.2251 10.3873Z" fill="black"/>
<path d="M52.979 8.06343H51.1334L52.7257 4.89442C52.0381 4.61273 51.3505 3.83808 51.3505 2.85217C51.3505 1.65498 52.3638 0.669067 53.5942 0.669067C54.8246 0.669067 55.8378 1.65498 55.8378 2.85217C55.8378 3.30991 55.6931 3.80287 55.3674 4.26062L52.979 8.06343Z" fill="black"/>
<path d="M55.476 13.8732L57.5749 12.007C58.0453 12.6761 58.8776 13.0634 59.8547 13.0634C60.3251 13.0634 60.8318 12.8873 60.8318 12.5C60.8318 12.1479 60.6508 11.9718 59.529 11.6901L58.8414 11.5141C56.8149 11.0563 55.8017 9.78873 55.8378 8.16901C55.9102 6.26761 57.5749 5 59.8909 5C61.5193 5 62.7497 5.56338 63.582 6.69014L61.5193 8.34507C61.0489 7.74648 60.4699 7.53521 59.8547 7.53521C59.4566 7.53521 58.9862 7.67606 58.9862 8.06338C58.9862 8.27465 59.0586 8.59155 59.8547 8.80282L60.8318 9.0493C62.7497 9.54225 63.9439 10.4577 63.9439 12.2887C63.9439 14.2606 62.1345 15.7042 59.8185 15.7042C58.0091 15.7394 56.453 15.1408 55.476 13.8732Z" fill="black"/>
<path d="M64.5591 13.4858C64.5591 12.2887 65.5724 11.3027 66.8028 11.3027C68.0332 11.3027 69.0464 12.2887 69.0464 13.4858C69.0464 14.683 68.0332 15.6689 66.8028 15.6689C65.5724 15.6689 64.5591 14.683 64.5591 13.4858Z" fill="black"/>
<path d="M70.9644 0.950684H75.2707C79.8666 0.950684 83.232 4.08449 83.232 8.23942C83.232 12.3943 79.8666 15.5281 75.2707 15.5281H70.9644V0.950684ZM75.2345 13.7324C78.8533 13.7324 81.2055 11.4084 81.2055 8.23942C81.2055 5.0704 78.8171 2.74646 75.2345 2.74646H72.8823V13.7324H75.2345Z" fill="black"/>
<path d="M84.2091 10.3873C84.2091 7.35917 86.4528 5.07043 89.6735 5.07043C92.4238 5.07043 94.7036 6.93663 94.7036 10.2113C94.7036 10.3873 94.7036 10.5282 94.6674 10.7394H86.0185C86.0909 12.6409 87.5746 14.0845 89.6735 14.0845C91.3019 14.0845 92.3152 13.3803 92.9666 12.2887L94.4141 13.2394C93.4732 14.7535 91.8809 15.669 89.6735 15.669C86.3804 15.7042 84.2091 13.3803 84.2091 10.3873ZM92.858 9.29579C92.5685 7.60565 91.2296 6.61973 89.6373 6.61973C88.045 6.61973 86.5251 7.60565 86.1994 9.29579H92.858Z" fill="black"/>
<path d="M95.4635 13.3098L96.9472 12.4999C97.3453 13.5563 98.4309 14.1197 99.6251 14.1197C100.638 14.1197 101.471 13.6267 101.471 12.7464C101.471 12.007 101 11.5492 99.6251 11.1619L98.5757 10.845C96.8387 10.3521 95.934 9.29572 95.934 7.85206C95.934 6.12671 97.5624 5.03516 99.5528 5.03516C101.145 5.03516 102.339 5.66896 103.027 6.83093L101.688 7.74642C101.217 7.07741 100.494 6.58445 99.4804 6.58445C98.5757 6.58445 97.7434 7.0422 97.7434 7.81685C97.7434 8.45065 98.0691 8.94361 99.2271 9.29572L100.385 9.64783C102.231 10.2112 103.244 11.0915 103.244 12.676C103.244 14.6478 101.688 15.7394 99.589 15.7394C97.7434 15.7042 96.1511 14.9295 95.4635 13.3098Z" fill="black"/>
<path d="M104.691 1.26761C104.691 0.598592 105.27 0 105.994 0C106.718 0 107.261 0.56338 107.261 1.26761C107.261 1.97183 106.718 2.53521 105.994 2.53521C105.27 2.53521 104.691 1.97183 104.691 1.26761ZM105.053 5.24648H106.863V15.493H105.053V5.24648Z" fill="black"/>
<path d="M108.998 17.8873L110.264 16.6549C111.097 17.7112 112.327 18.3802 113.956 18.3802C115.729 18.3802 117.466 17.2887 117.466 14.8239V13.6619C116.742 14.7183 115.367 15.4577 113.811 15.4577C110.843 15.4577 108.636 13.169 108.636 10.2464C108.636 7.32389 110.843 5.03516 113.811 5.03516C115.403 5.03516 116.742 5.77459 117.466 6.83093V5.24642H119.275V14.8943C119.275 18.3098 116.959 19.9647 113.956 19.9647C111.676 19.9999 109.903 19.0492 108.998 17.8873ZM117.611 10.2464C117.611 8.20417 116.163 6.65487 114.064 6.65487C111.965 6.65487 110.518 8.20417 110.518 10.2464C110.518 12.3239 111.965 13.838 114.064 13.838C116.163 13.838 117.611 12.3239 117.611 10.2464Z" fill="black"/>
<path d="M121.881 5.24642H123.69V6.83093C124.414 5.59854 125.68 5.03516 127.056 5.03516C129.408 5.03516 131.036 6.61966 131.036 9.19009V15.4929H129.263V9.43656C129.263 7.71121 128.286 6.65487 126.766 6.65487C125.065 6.65487 123.726 7.9929 123.726 10.4225V15.4929H121.917V5.24642H121.881Z" fill="black"/>
</g>
<defs>
<clipPath id="clip0">
<rect width="131" height="20" fill="white"/>
</clipPath>
</defs>
</svg>
