<svg width="131" height="24" viewBox="0 0 131 24" fill="none" xmlns="http://www.w3.org/2000/svg">
<path d="M3.5179 0.989258L8.9204 8.64517L14.3648 0.989258H17.8827V18.7527H13.9879V7.82797L8.96228 15.0108L3.89482 7.82797V18.7957H0V0.989258H3.5179Z" fill="black"/>
<path d="M19.2228 12.5161C19.2228 8.98927 21.6937 5.97852 24.8766 5.97852C26.5518 5.97852 27.6407 6.83873 28.1851 7.5269V6.27959H31.8705V18.7957H28.1851V17.5484C27.6407 18.2366 26.5099 19.0968 24.8766 19.0968C21.6937 19.0538 19.2228 16.043 19.2228 12.5161ZM28.4783 12.5161C28.4783 10.7097 27.3475 9.41937 25.7142 9.41937C24.039 9.41937 22.9501 10.7097 22.9501 12.5161C22.9501 14.3226 24.0809 15.6129 25.7142 15.6129C27.3475 15.6129 28.4783 14.3226 28.4783 12.5161Z" fill="black"/>
<path d="M33.9226 0H37.6081V18.7957H33.9226V0Z" fill="black"/>
<path d="M38.9063 12.5162C38.9063 8.81723 41.796 5.97852 45.3139 5.97852C48.8318 5.97852 51.7216 8.81723 51.7216 12.5162C51.7216 16.2151 48.8318 19.0538 45.3139 19.0538C41.796 19.0538 38.9063 16.2151 38.9063 12.5162ZM48.0361 12.5162C48.0361 10.7097 46.9054 9.5054 45.3139 9.5054C43.7225 9.5054 42.5918 10.7097 42.5918 12.5162C42.5918 14.3226 43.7225 15.5269 45.3139 15.5269C46.9054 15.5269 48.0361 14.3226 48.0361 12.5162Z" fill="black"/>
<path d="M52.3916 16.3012C52.3916 14.8388 53.5643 13.6345 54.9882 13.6345C56.4121 13.6345 57.5847 14.8388 57.5847 16.3012C57.5847 17.7636 56.4121 18.9679 54.9882 18.9679C53.5643 18.9679 52.3916 17.7636 52.3916 16.3012Z" fill="black"/>
<path d="M58.5898 9.89253C58.5898 4.77425 62.5684 0.688232 67.5521 0.688232C70.8606 0.688232 73.6666 2.36565 75.2161 4.98931L73.3315 6.1506C72.117 4.12909 70.1068 2.88178 67.594 2.88178C63.8248 2.88178 60.9351 5.97856 60.9351 9.84952C60.9351 13.7635 63.8248 16.8173 67.594 16.8173C70.1487 16.8173 72.1589 15.5269 73.3315 13.5484L75.2161 14.7097C73.6666 17.3334 70.8606 19.0108 67.5521 19.0108C62.5684 19.0968 58.5898 15.0108 58.5898 9.89253Z" fill="black"/>
<path d="M76.9332 18.7957V0H79.0272V8.17204C79.8648 6.66667 81.3306 5.9785 82.922 5.9785C85.6442 5.9785 87.5288 7.91398 87.5288 11.0538V18.7527H85.4348V11.3979C85.4348 9.29032 84.304 8 82.5451 8C80.5767 8 79.0272 9.63441 79.0272 12.6022V18.7957H76.9332Z" fill="black"/>
<path d="M89.3715 12.5161C89.3715 8.94622 91.9262 6.02148 95.3603 6.02148C97.203 6.02148 98.8363 7.01073 99.632 8.21503V6.27955H101.726V18.7957H99.632V16.8602C98.8363 18.0645 97.203 19.0537 95.3603 19.0537C91.9262 19.0537 89.3715 16.086 89.3715 12.5161ZM99.7996 12.5161C99.7996 9.97847 98.0825 7.99998 95.6535 7.99998C93.1826 7.99998 91.4655 10.0215 91.4655 12.5161C91.4655 15.0537 93.1826 17.0322 95.6535 17.0322C98.0825 17.0752 99.7996 15.0537 99.7996 12.5161Z" fill="black"/>
<path d="M104.699 24V6.27959H106.793V8.17206C107.589 6.96776 109.223 5.97852 111.065 5.97852C114.499 5.97852 117.054 8.90325 117.054 12.4731C117.054 16.043 114.499 18.9678 111.065 18.9678C109.223 18.9678 107.589 17.9785 106.793 16.7742V23.957H104.699V24ZM114.918 12.5162C114.918 9.97852 113.201 8.00002 110.772 8.00002C108.343 8.00002 106.626 10.0215 106.626 12.5162C106.626 15.0538 108.343 17.0323 110.772 17.0323C113.201 17.0753 114.918 15.0538 114.918 12.5162Z" fill="black"/>
<path d="M119.232 7.82802H117.808L119.441 4.25812C118.897 3.95705 118.436 3.31189 118.436 2.58071C118.436 1.54845 119.232 0.688232 120.279 0.688232C121.284 0.688232 122.08 1.54845 122.08 2.58071C122.08 2.9678 121.954 3.39791 121.745 3.69898L119.232 7.82802Z" fill="black"/>
<path d="M121.954 16.129L123.671 15.1398C124.132 16.4301 125.388 17.1183 126.77 17.1183C127.943 17.1183 128.906 16.5161 128.906 15.4408C128.906 14.5376 128.362 13.9785 126.77 13.5054L125.556 13.1183C123.545 12.5161 122.498 11.2258 122.498 9.46234C122.498 7.35482 124.383 6.02148 126.686 6.02148C128.529 6.02148 129.911 6.79568 130.707 8.21503L129.157 9.33331C128.613 8.51611 127.775 7.91396 126.603 7.91396C125.556 7.91396 124.592 8.4731 124.592 9.41933C124.592 10.1935 124.969 10.7957 126.309 11.2258L127.65 11.6559C129.785 12.3441 130.958 13.4193 130.958 15.3548C130.958 17.7634 129.157 19.0968 126.728 19.0968C124.551 19.0537 122.708 18.1075 121.954 16.129Z" fill="black"/>
</svg>
